<svg width="25" height="44" viewBox="0 0 25 44" fill="none" xmlns="http://www.w3.org/2000/svg">
<path d="M10.26 22.309C12.004 19.161 15.36 17.304 17.304 14.518C19.365 11.596 18.21 6.13805 12.367 6.13805C8.539 6.13805 6.66 9.03805 5.867 11.438L0 8.96905C0.8248 6.34865 2.46965 4.06255 4.69209 2.44776C6.91453 0.832958 9.59697 -0.0251054 12.344 4.94095e-05C17.666 4.94095e-05 21.313 2.42305 23.17 5.45805C24.755 8.05805 25.684 12.9321 23.238 16.5581C20.52 20.567 17.916 21.79 16.511 24.372C15.945 25.414 15.718 26.093 15.718 29.445H9.173C9.15 27.677 8.878 24.8 10.26 22.309ZM16.896 38.5C16.896 39.396 16.6303 40.2718 16.1326 41.0168C15.6348 41.7617 14.9273 42.3424 14.0996 42.6852C13.2718 43.0281 12.361 43.1178 11.4822 42.943C10.6035 42.7682 9.79634 42.3368 9.16281 41.7032C8.52927 41.0697 8.09783 40.2625 7.92304 39.3838C7.74825 38.5051 7.83796 37.5942 8.18083 36.7665C8.52369 35.9387 9.10431 35.2313 9.84927 34.7335C10.5942 34.2357 11.4701 33.9701 12.366 33.9701C13.5664 33.9735 14.7166 34.4518 15.5654 35.3006C16.4142 36.1494 16.8926 37.2997 16.896 38.5V38.5Z" fill="url(#paint0_linear_244_57)"/>
<defs>
<linearGradient id="paint0_linear_244_57" x1="22.063" y1="21.5147" x2="1.51206e-07" y2="21.5147" gradientUnits="userSpaceOnUse">
<stop offset="0.197917" stop-color="#E83E36"/>
<stop offset="0.9375" stop-color="#2679F6"/>
</linearGradient>
</defs>
</svg>
